<svg xmlns="http://www.w3.org/2000/svg" width="1158" height="253" viewBox="0 0 1158 253" fill="none"><g clip-path="url(#clip0_2142_290)"><path d="M358 170H197.5C195.15 172.42 197.69 179.45 198.72 182.78C216.95 242.03 303.47 247.53 330 193H356C327.42 275.06 197.83 272.5 174.74 186.76C155.04 113.62 217.22 52.18 290.21 70.29C334.42 81.26 363.66 124.96 358 170ZM197.5 149H332.5C334.61 147.41 332.72 142.88 332.13 140.37C319.28 85.3 241.65 71.48 209.17 116.67C204.21 123.57 196.47 138.54 196.4 146.95C196.4 148.14 196.51 148.26 197.5 149.01V149Z" fill="#090909"></path><path d="M775 170H613C619.7 238.23 717.82 253.11 747 193H773C750.11 260.92 650.87 273.74 607.6 217.9C566.21 164.48 593.45 82.57 660.8 69.3C725.38 56.57 781.68 103.99 775 170ZM614.5 149H749.5C751.61 146.92 749.34 140.91 748.49 138.01C730.77 77.01 641.59 72.58 617.82 131.32C616.36 134.92 613.43 143.4 613.4 146.94C613.39 148.13 613.51 148.25 614.5 149Z" fill="#090909"></path><path d="M824 22V71H881V93H824V205.5C824 213.84 833.05 223.49 840.94 225.56C860.08 230.57 876.65 219.27 876 199H896.5C899.4 199 896.3 214 895.71 216.21C882.57 264.79 800 257.49 800 205.5V93H766V72.5L767.5 71H795.5C796.67 71 801 66.68 801 65.5V22H824Z" fill="#090909"></path><path d="M442.5 71L509.49 218.01L575.5 71H601L519.54 249.07C514.72 248.06 498.56 250.86 496.09 247.41L417.01 70.99H442.51L442.5 71Z" fill="#090909"></path><path d="M25.5 71L91.51 218.01L158.5 71H184L102.99 248.49C101.59 249.26 83.92 249.44 81.5 249C80.38 248.8 79.58 248.52 79.09 247.41L0 71H25.5Z" fill="#090909"></path><path d="M433 226V249H412.5C405.49 249 391.07 242.52 385.96 237.54C382.23 233.9 375 220.36 375 215.5V0H397.5L399 1.5V210.5C399 211.34 403.01 218.22 404.11 219.39C406.32 221.73 414.55 226 417.5 226H433Z" fill="#090909"></path><path d="M867 110L864.01 135C879.79 123.34 900.16 129.5 906.5 148C914.25 124.79 952.94 121.15 959.01 147.01L960.99 146.31C968.1 128.55 991.86 122.93 1005.5 137L1007.05 131.06L1017 131.02L1010.96 169.56C1010.65 173.55 1013.87 173.18 1017 173.02L1016.01 182.02C1009.7 182.46 1004.33 182.42 1001.51 176.02C987.92 189.88 963.39 184.21 958.51 165.01C950.54 188.59 911.86 191.04 906 165.01L903.94 165.63C897.44 184.23 871.79 190.15 858.5 175.02L856.9 181.91L848 182.02L858.09 110.06L867 110.03V110ZM878.81 138.23C858.33 139.25 854.31 171.07 872.56 173.94C901.79 178.53 905.19 136.92 878.81 138.23ZM916 152H949.5L950.61 149.93C945.35 132.46 919.69 135.37 916 152ZM984.77 138.19C960.95 141.42 962.02 180.11 990.07 173.57C1002.13 170.76 1009.01 150.13 998.49 142.01C995.23 139.49 988.86 137.64 984.77 138.19ZM958 161H915C916.15 178.49 942.38 178.17 948.7 163.98H958V161Z" fill="#090909"></path><path d="M1111.5 130L1124.5 169.01L1146.51 131.01C1148.28 129.54 1153.15 129.66 1155.52 130C1156.9 130.2 1157.23 129.43 1157.02 131.51L1118.99 194.49C1113.48 199.55 1106.38 201.34 1099 201L1100.46 191.96C1103.79 190.18 1106.3 191.72 1109.96 189.46C1112.36 187.97 1116.98 182.44 1117.06 179.55L1104.88 139.13L1088.06 139.05C1087.76 147.94 1084.11 158.99 1083.96 167.56C1083.86 173.37 1090.16 174.98 1093.52 172.01C1097.23 168.73 1093.29 163.81 1105.01 166.01C1103.45 175.41 1098.33 182.88 1087.86 182.42C1065.17 181.44 1079.46 152.73 1078.01 138.99L1069.95 138.53C1068.47 129.2 1071.85 129.63 1079.87 129.86C1082.25 122.59 1079.48 111.28 1091.08 117.65L1089.01 129.99H1111.51L1111.5 130Z" fill="#090909"></path><path d="M1032 130C1032.21 139.02 1024.57 162.5 1028.98 169.53C1034.19 177.84 1049.36 174.5 1053.77 166.27C1056.8 160.63 1058.58 131.11 1060.15 130.14L1069.01 130L1064 173.01H1069.01L1067.9 181.89C1062.13 182.44 1057.44 182.75 1054.51 177.02C1047.03 184.51 1032.47 185.94 1024.06 179.45C1011.68 169.89 1022.34 144.89 1022.15 131.65L1023.64 130.14L1032 130.01V130Z" fill="#090909"></path></g><defs><clipPath id="clip0_2142_290"><rect width="1157.08" height="252.93" fill="white"></rect></clipPath></defs></svg>